<?xml version="1.0" encoding="utf-8"?>
<!-- Generator: Adobe Illustrator 22.1.0, SVG Export Plug-In . SVG Version: 6.00 Build 0)  -->
<svg version="1.1" id="Layer_1" xmlns="http://www.w3.org/2000/svg" xmlns:xlink="http://www.w3.org/1999/xlink" x="0px" y="0px"
	 viewBox="0 0 77.4 85.6" style="enable-background:new 0 0 77.4 85.6;" xml:space="preserve">
<style type="text/css">
	.st0{opacity:0.3;fill:#FFDD15;}
	.st1{fill:url(#SVGID_1_);}
	.st2{opacity:0.3;fill:#EC1C24;}
	.st3{fill:url(#SVGID_2_);}
	.st4{opacity:0.3;fill:#F48330;}
	.st5{fill:url(#SVGID_3_);}
	.st6{opacity:0.3;fill:#8BC53F;}
	.st7{fill:url(#SVGID_4_);}
	.st8{opacity:0.3;fill:#1B75BB;}
	.st9{fill:url(#SVGID_5_);}
	.st10{fill:#2B388F;}
	.st11{fill:url(#SVGID_6_);}
	.st12{opacity:0.3;fill:#B96FAD;}
	.st13{fill:url(#SVGID_7_);}
	.st14{opacity:0.3;fill:#09B6E7;}
	.st15{fill:none;stroke:#00ADEE;stroke-width:6;stroke-miterlimit:10;}
	.st16{fill:#00ADEE;}
	.st17{fill:#5F58A5;}
	.st18{fill:none;stroke:url(#SVGID_8_);stroke-width:6;stroke-miterlimit:10;}
	.st19{opacity:0.3;fill:none;stroke:#00A677;stroke-width:6;stroke-miterlimit:10;}
	.st20{opacity:0.3;fill:none;stroke:#E72682;stroke-width:6;stroke-miterlimit:10;}
	.st21{opacity:0.6;fill:none;stroke:#00A677;stroke-width:6;stroke-miterlimit:10;}
</style>
<g>
	<circle class="st12" cx="41.9" cy="42.3" r="31.4"/>
	<linearGradient id="SVGID_1_" gradientUnits="userSpaceOnUse" x1="21.2938" y1="49.9999" x2="56.5834" y2="14.7103">
		<stop  offset="0" style="stop-color:#5F58A5"/>
		<stop  offset="1" style="stop-color:#B96FAD"/>
	</linearGradient>
	<path class="st1" d="M57.8,51.1c1.3-1.2,3.8-3.3,3.7-6.5c-0.1-2.6-1.8-4.3-3.1-5.6c-0.6-0.6-1.2-1.1-1.4-1.6
		c-0.3-0.6-0.2-1.8-0.1-3l0-0.2c0.5-5.3,0.3-9.8-0.7-13.7c-0.1-0.3-0.2-0.6-0.2-1c-1.1-4.3-2.7-10.9-12.5-16
		C33-1.8,17.3,2.3,9.2,12.6c-3.8,4.9-6.9,12.7-3.8,20l0.1,0.2c0.1,0.2,1.9,3.8,5.2,6.6c0.2-2.5,0.8-4.8,1.5-7.1
		c-0.7-1-1.2-1.8-1.3-2.1c-1.6-4-0.4-9.4,3-13.9c6.2-7.9,19-11.4,26.8-7.3c7.4,3.8,8.4,8.2,9.4,12.1c0.1,0.4,0.2,0.7,0.3,1
		c0.8,3.3,1,7.1,0.6,11.6l0,0.2c-0.2,1.8-0.4,4,0.7,6.2c0.7,1.4,1.7,2.3,2.6,3.2c0.5,0.5,1.2,1.2,1.3,1.5c0,0.2-0.3,0.7-1.6,1.8
		c-0.5,0.4-1.2,1.1-1.7,2.1c-0.5,1.1-0.6,2.2-0.6,2.8c0,2.5,0.1,5.1,0.3,7.6c0.1,0.7,0.1,1.2,0.1,1.4c-0.2,0-0.3,0.1-0.5,0.1l-3,0.5
		l1,5.9l3-0.5c0.8-0.1,2-0.3,3.1-1.1c2.8-2,2.4-5.4,2.3-6.9c-0.2-2.3-0.3-4.6-0.3-6.9c0-0.1,0-0.2,0-0.3
		C57.6,51.2,57.7,51.1,57.8,51.1z"/>
</g>
</svg>
