<?xml version="1.0" encoding="utf-8"?>
<!-- Generator: Adobe Illustrator 22.1.0, SVG Export Plug-In . SVG Version: 6.00 Build 0)  -->
<svg version="1.1" id="Layer_1" xmlns="http://www.w3.org/2000/svg" xmlns:xlink="http://www.w3.org/1999/xlink" x="0px" y="0px"
	 viewBox="0 0 77.4 85.6" style="enable-background:new 0 0 77.4 85.6;" xml:space="preserve">
<style type="text/css">
	.st0{opacity:0.3;fill:#FFDD15;}
	.st1{fill:url(#SVGID_1_);}
	.st2{opacity:0.3;fill:#EC1C24;}
	.st3{fill:url(#SVGID_2_);}
	.st4{opacity:0.3;fill:#F48330;}
	.st5{fill:url(#SVGID_3_);}
	.st6{opacity:0.3;fill:#8BC53F;}
	.st7{fill:url(#SVGID_4_);}
	.st8{opacity:0.3;fill:#1B75BB;}
	.st9{fill:url(#SVGID_5_);}
	.st10{fill:#2B388F;}
	.st11{fill:url(#SVGID_6_);}
	.st12{opacity:0.3;fill:#B96FAD;}
	.st13{fill:url(#SVGID_7_);}
	.st14{opacity:0.3;fill:#09B6E7;}
	.st15{fill:none;stroke:#00ADEE;stroke-width:6;stroke-miterlimit:10;}
	.st16{fill:#00ADEE;}
	.st17{fill:#5F58A5;}
	.st18{fill:none;stroke:url(#SVGID_8_);stroke-width:6;stroke-miterlimit:10;}
	.st19{opacity:0.3;fill:none;stroke:#00A677;stroke-width:6;stroke-miterlimit:10;}
	.st20{opacity:0.3;fill:none;stroke:#E72682;stroke-width:6;stroke-miterlimit:10;}
	.st21{opacity:0.6;fill:none;stroke:#00A677;stroke-width:6;stroke-miterlimit:10;}
</style>
<g>
	<circle class="st2" cx="38.7" cy="42.3" r="31.4"/>
	<g>
		<linearGradient id="SVGID_1_" gradientUnits="userSpaceOnUse" x1="16.6414" y1="46.4917" x2="54.8975" y2="8.2356">
			<stop  offset="0" style="stop-color:#9E1F63"/>
			<stop  offset="1" style="stop-color:#EC297B"/>
		</linearGradient>
		<path class="st1" d="M38.8,64.1c-3.8,0-5.9-3.4-8-6.6c-1.7-2.7-3.7-5.8-6.7-7.7c-1.1-0.7-2.2-1.4-3.4-2.1
			c-7.3-4.4-16.3-9.9-16.3-21.9C4.5,14.2,10.5,5.5,19.7,3.7c8.1-1.6,14.8,2.6,19,8.5c2.5-3.5,5.7-6.1,9.5-7.5l2.1,5.6
			c-3.8,1.4-6.9,4.7-8.8,9.1L38.7,26L36,19.5c-3.1-7.3-9-11.2-15.1-9.9c-6.3,1.3-10.5,7.7-10.5,16.3c-0.1,8.6,6.8,12.7,13.4,16.7
			c1.3,0.8,2.5,1.5,3.6,2.3c4.1,2.7,6.5,6.5,8.4,9.5c0.9,1.5,2.3,3.6,3,3.8c0.7-0.2,2.3-2.7,3.3-4.2c1.9-2.9,4.3-6.6,7.9-9.2
			c1.4-1,2.9-1.9,4.5-2.9c6.4-4,12.4-7.7,12.6-15.5l6,0.2c-0.3,11-8.7,16.3-15.4,20.5c-1.5,0.9-2.9,1.8-4.2,2.7
			c-2.7,1.9-4.6,4.9-6.3,7.5C44.8,60.7,42.6,64.1,38.8,64.1z"/>
	</g>
</g>
</svg>
