<?xml version="1.0" encoding="utf-8"?>
<!-- Generator: Adobe Illustrator 22.1.0, SVG Export Plug-In . SVG Version: 6.00 Build 0)  -->
<svg version="1.1" id="Layer_1" xmlns="http://www.w3.org/2000/svg" xmlns:xlink="http://www.w3.org/1999/xlink" x="0px" y="0px"
	 viewBox="0 0 77.4 85.6" style="enable-background:new 0 0 77.4 85.6;" xml:space="preserve">
<style type="text/css">
	.st0{opacity:0.3;fill:#FFDD15;}
	.st1{fill:url(#SVGID_1_);}
	.st2{opacity:0.3;fill:#EC1C24;}
	.st3{fill:url(#SVGID_2_);}
	.st4{opacity:0.3;fill:#F48330;}
	.st5{fill:url(#SVGID_3_);}
	.st6{opacity:0.3;fill:#8BC53F;}
	.st7{fill:url(#SVGID_4_);}
	.st8{opacity:0.3;fill:#1B75BB;}
	.st9{fill:url(#SVGID_5_);}
	.st10{fill:#2B388F;}
	.st11{fill:url(#SVGID_6_);}
	.st12{opacity:0.3;fill:#B96FAD;}
	.st13{fill:url(#SVGID_7_);}
	.st14{opacity:0.3;fill:#09B6E7;}
	.st15{fill:none;stroke:#00ADEE;stroke-width:6;stroke-miterlimit:10;}
	.st16{fill:#00ADEE;}
	.st17{fill:#5F58A5;}
	.st18{fill:none;stroke:url(#SVGID_8_);stroke-width:6;stroke-miterlimit:10;}
	.st19{opacity:0.3;fill:none;stroke:#00A677;stroke-width:6;stroke-miterlimit:10;}
	.st20{opacity:0.3;fill:none;stroke:#E72682;stroke-width:6;stroke-miterlimit:10;}
	.st21{opacity:0.6;fill:none;stroke:#00A677;stroke-width:6;stroke-miterlimit:10;}
</style>
<g>
	
		<ellipse transform="matrix(9.952416e-02 -0.995 0.995 9.952416e-02 -2.0731 78.9659)" class="st14" cx="42.6" cy="40.6" rx="33" ry="31.4"/>
	<polyline class="st15" points="20.3,20.1 34.8,34.7 44.9,24.7 	"/>
	<circle class="st16" cx="34.8" cy="10.9" r="2.6"/>
	<circle class="st17" cx="34.8" cy="58.5" r="2.6"/>
	<ellipse transform="matrix(0.9506 -0.3103 0.3103 0.9506 -10.2246 5.1459)" class="st17" cx="11.1" cy="34.7" rx="2.6" ry="2.6"/>
	<ellipse transform="matrix(0.9506 -0.3103 0.3103 0.9506 -7.8777 19.9002)" class="st16" cx="58.6" cy="34.7" rx="2.6" ry="2.6"/>
	<linearGradient id="SVGID_1_" gradientUnits="userSpaceOnUse" x1="10.5414" y1="59.0103" x2="59.1368" y2="10.4149">
		<stop  offset="0" style="stop-color:#5F58A5"/>
		<stop  offset="1" style="stop-color:#00ADEE"/>
	</linearGradient>
	
		<ellipse transform="matrix(9.952419e-02 -0.995 0.995 9.952419e-02 -3.1685 65.924)" style="fill:none;stroke:url(#SVGID_1_);stroke-width:6;stroke-miterlimit:10;" cx="34.8" cy="34.7" rx="31.4" ry="31.4"/>
</g>
</svg>
